<svg version="1" xmlns="http://www.w3.org/2000/svg" width="933.333" height="933.333" viewBox="0 0 700.000000 700.000000"><path d="M459 176.1c-50.4 6.5-91.9 37.5-114 85.3-24.8 53.6-25.6 131.1-1.9 182.4 25.1 54.4 77.2 83.6 144.4 80.9 24.7-1 42.1-7.2 66.6-24 7-4.7 13.8-8.9 15.2-9.2 3.8-1 8.2 1.8 10.4 6.7 2.2 4.8 4.1 11.7 4.5 16.3.3 2.8.6 3 5.1 3.3l4.7.3v-52.8c0-52.4.7-66.9 3.5-72.2 2.9-5.6 6-7.3 17.8-9.6 2.4-.5 2.7-.9 2.7-4.8v-4.2H502v4.2c0 4.2 0 4.2 4.3 4.7 15.5 1.8 21.6 2.7 24.8 3.6 5.3 1.5 11.6 6.4 13.8 10.7 4 8.1 4.6 14.1 4.6 50.8 0 41.7 0 41.6-9.8 49.5-17.1 13.9-40.1 19.8-66.9 17.1-31.7-3.2-53.8-14.7-70-36.5-14.3-19.2-23-45.6-27.4-83.2-2.1-17.7-2.4-64-.5-80.4 9.9-87.3 52.7-137.1 112.6-131.1 23.6 2.4 43.3 10.4 60.5 24.4 18.5 15.1 27.1 33.1 34.1 70.9l2.1 11.8h10.5l.7-47.8c.3-26.2.9-50.7 1.3-54.5l.6-6.7h-11.2l-.6 4.7c-1.8 13-5.2 21.7-9 23-3.5 1.2-5.3.4-21.3-10.1-22.2-14.6-35.6-20.2-55.2-23.1-10.2-1.6-30.4-1.8-41-.4z"/><path d="M82 186.7c0 2.8.4 4.3 1.3 4.3.6 0 5.2.5 10.2 1 16.7 2 23 7 25.4 20.4.8 4.1 1.1 47.9 1.1 137.6 0 89.7-.3 133.5-1.1 137.6-2.4 13.4-8.7 18.4-25.4 20.4-5 .5-9.6 1-10.2 1-.9 0-1.3 1.5-1.3 4.2v4.3h121v-8.2l-9.7-1.1c-5.4-.6-11.9-1.9-14.5-2.8-5.5-1.8-10.2-6.7-11.8-12.1-2.3-8-3-29.7-2.8-81.3l.3-53.5 20-.3c34.2-.5 45.8 1.7 55.3 10.3 11.7 10.5 15.7 21.8 29.2 82.5 3.4 15.1 7.5 31.5 9.1 36.5 9 27.1 25.3 38.9 51.7 37.2 11.1-.7 17.4-2.7 25.2-7.9 6-4 20-19 20-21.5 0-.6-1.3-2.1-3-3.3l-3-2.1-7.7 7.9c-6.6 6.7-8.6 8.1-12.7 9.1-10.3 2.5-18-1.7-22.9-12.7-1.4-3.1-7.1-24.1-12.6-46.5-12.6-51-15.6-58.8-27.3-70.5-9.2-9.3-20.7-14.6-40.3-18.7-11.4-2.3-11.4-2.5-1-4.5 48.5-9.6 81.6-45.8 81.5-89.4-.1-38.7-26.8-67.7-72-78.1-16.3-3.7-20.5-3.8-96.7-3.9l-75.3-.1v4.2zm135 5.3c27.4 3.3 46 15.9 54.6 37 5.2 12.9 6.8 22.1 6.8 40.5 0 29.4-5.1 45.5-18.7 58.9-16 15.9-32.7 20.6-72.9 20.6H164v-58.3c0-56.4.7-76 3-84 2.4-8.1 10.4-13.8 21-15 7.4-.8 20.9-.7 29 .3z"/></svg>