<?xml version="1.0" standalone="no"?>
<!DOCTYPE svg PUBLIC "-//W3C//DTD SVG 20010904//EN"
 "http://www.w3.org/TR/2001/REC-SVG-20010904/DTD/svg10.dtd">
<svg version="1.0" xmlns="http://www.w3.org/2000/svg"
 width="400.000000pt" height="400.000000pt" viewBox="0 0 400.000000 400.000000"
 preserveAspectRatio="xMidYMid meet">
<metadata>
Created by potrace 1.11, written by Peter Selinger 2001-2013
</metadata>
<g transform="translate(0.000000,400.000000) scale(0.100000,-0.100000)"
fill="#000000" stroke="none">
<path d="M0 2000 l0 -2000 2000 0 2000 0 0 2000 0 2000 -2000 0 -2000 0 0
-2000z m1321 901 c17 -18 29 -40 29 -56 0 -16 -12 -38 -29 -56 l-29 -29 -145
0 c-139 0 -145 1 -171 25 -35 32 -36 86 -1 120 23 24 28 25 170 25 l147 0 29
-29z m395 5 c21 -18 28 -32 28 -61 0 -55 -38 -85 -109 -85 -71 0 -109 30 -109
85 0 55 38 85 109 85 42 0 60 -5 81 -24z m874 -4 c146 -52 288 -165 363 -289
20 -32 48 -94 63 -138 25 -71 28 -94 28 -210 0 -115 -3 -140 -27 -210 -83
-248 -314 -433 -564 -452 l-75 -6 274 -274 273 -273 -623 0 -623 0 -24 25
c-31 30 -33 83 -6 116 l19 24 297 5 297 5 24 28 c31 36 31 77 -1 111 -22 24
-30 26 -110 26 -82 0 -88 1 -116 29 -34 35 -38 77 -10 112 16 20 31 24 117 31
90 6 101 9 121 33 30 35 30 79 -2 110 l-24 25 -356 0 c-364 0 -384 2 -412 39
-22 29 -16 85 13 112 l26 24 281 2 c155 1 319 2 365 3 74 0 85 3 107 25 32 31
32 76 3 109 -22 23 -30 25 -144 30 -67 2 -131 9 -143 15 -26 14 -41 67 -28
104 15 45 52 57 177 57 104 0 112 1 135 25 32 31 32 75 1 112 l-24 28 -242 5
-242 5 -25 29 c-31 36 -26 80 13 114 24 21 31 22 255 22 l231 0 29 29 c38 38
38 74 0 112 l-29 29 -192 0 c-189 0 -191 0 -215 25 -34 33 -34 87 0 121 l25
25 328 -3 c312 -3 330 -4 392 -26z m-744 -685 c31 -36 31 -78 0 -114 l-24 -28
-194 -2 c-221 -3 -252 3 -275 52 -14 28 -14 38 -3 65 23 56 43 60 268 57 l204
-2 24 -28z m-486 -345 c28 -35 26 -83 -6 -113 -22 -20 -36 -24 -91 -24 -59 0
-67 3 -89 28 -29 34 -31 76 -5 108 14 17 32 25 72 29 73 7 96 2 119 -28z m309
-336 c39 -42 26 -117 -25 -136 -14 -6 -145 -10 -290 -10 l-266 0 -30 30 c-26
27 -30 36 -25 68 12 71 14 72 331 72 l283 0 22 -24z m-124 -339 c21 -17 27
-32 27 -62 0 -60 -34 -85 -118 -85 -56 0 -68 4 -89 25 -17 16 -25 35 -25 60 0
25 8 44 25 60 21 21 33 25 89 25 53 0 70 -4 91 -23z"/>
</g>
</svg>
